<?xml version="1.0" encoding="UTF-8"?>
<svg width="55px" height="117px" viewBox="0 0 55 117" version="1.1" xmlns="http://www.w3.org/2000/svg" xmlns:xlink="http://www.w3.org/1999/xlink">
    <!-- Generator: Sketch 47.1 (45422) - http://www.bohemiancoding.com/sketch -->
    <title>Icon</title>
    <desc>Created with Sketch.</desc>
    <defs></defs>
    <g id="scratchpad" stroke="none" stroke-width="1" fill="none" fill-rule="evenodd">
        <g id="Icon---128x128px" transform="translate(-30.000000, -4.000000)">
            <g id="Icon" transform="translate(27.000000, 4.000000)">
                <g id="Group-8" transform="translate(37.000000, 58.500000) scale(1, -1) rotate(90.000000) translate(-37.000000, -58.500000) translate(-21.000000, 22.000000)">
                    <path d="M115.523229,20.3672595 L88.5366652,65.2066619 C86.5712999,68.4722057 83.0314131,70.470297 79.2114296,70.470297 L51.4724102,70.470297 C48.4693619,70.470297 46.0349102,68.0433257 46.0349102,65.049505 C46.0349102,64.0670192 46.3027497,63.103005 46.8097924,62.2605304 L71.3258348,21.5260114 C73.2912001,18.2604676 76.8310869,16.2623762 80.6510704,16.2623762 L113.19192,16.2623762 C114.693444,16.2623762 115.91067,17.4758619 115.91067,18.9727723 C115.91067,19.4640152 115.77675,19.9460222 115.523229,20.3672595 Z" id="Rectangle-2" fill="#AD86D8"></path>
                    <path d="M92.165625,23.5804455 L95.235137,23.5804455 C95.6355434,23.5804455 95.960137,23.9040417 95.960137,24.3032178 C95.960137,24.4342159 95.924425,24.5627511 95.8568193,24.6750811 L77.7854024,54.701562 C77.261305,55.5723737 76.3173352,56.105198 75.2986729,56.105198 L72.590625,56.105198 L92.165625,23.5804455 Z" id="Rectangle-7" fill-opacity="0.5" fill="#FFFFFF"></path>
                    <path d="M100.865625,23.5804455 L103.935137,23.5804455 C104.335543,23.5804455 104.660137,23.9040417 104.660137,24.3032178 C104.660137,24.4342159 104.624425,24.5627511 104.556819,24.6750811 L86.4854024,54.701562 C85.961305,55.5723737 85.0173352,56.105198 83.9986729,56.105198 L81.290625,56.105198 L100.865625,23.5804455 Z" id="Rectangle-7" fill-opacity="0.5" fill="#FFFFFF"></path>
                    <path d="M71.3258348,65.2066619 L45.0366652,21.5260114 C43.0712999,18.2604676 39.5314131,16.2623762 35.7114296,16.2623762 L3.17058009,16.2623762 C2.67782311,16.2623762 2.19433038,16.3958845 1.77179476,16.6486268 C0.48424841,17.4187809 0.0667433922,19.0836695 0.839271201,20.3672595 L27.8258348,65.2066619 C29.7912001,68.4722057 33.3310869,70.470297 37.1510704,70.470297 L83.0099102,70.470297 L80.6510704,70.470297 C76.8310869,70.470297 73.2912001,68.4722057 71.3258348,65.2066619 Z" id="Combined-Shape" fill="#5B0EB2"></path>
                </g>
            </g>
        </g>
    </g>
</svg>